<svg xmlns="http://www.w3.org/2000/svg" viewBox="0 0 640 220" role="img" aria-label="Train Mania logo">
  <defs>
    <linearGradient id="bg" x1="0" y1="0" x2="1" y2="1">
      <stop offset="0" stop-color="#ff4da6"/>
      <stop offset="1" stop-color="#ffd04a"/>
    </linearGradient>
    <linearGradient id="shine" x1="0" y1="0" x2="1" y2="0">
      <stop offset="0" stop-color="#11e1ff"/>
      <stop offset="1" stop-color="#60ff9a"/>
    </linearGradient>
    <filter id="shadow" x="-20%" y="-20%" width="140%" height="140%">
      <feDropShadow dx="0" dy="6" stdDeviation="6" flood-color="#000000" flood-opacity="0.35"/>
    </filter>
  </defs>
  <rect width="640" height="220" rx="28" fill="url(#bg)"/>
  <path d="M20 170 C120 120 250 210 360 160 C470 110 560 170 620 140" fill="none" stroke="#fffdc4" stroke-width="10" opacity="0.45"/>
  <g filter="url(#shadow)">
    <rect x="64" y="112" width="140" height="56" rx="14" fill="#1c234a" stroke="#0a1026" stroke-width="4"/>
    <rect x="84" y="88" width="68" height="36" rx="10" fill="#1c234a" stroke="#0a1026" stroke-width="4"/>
    <rect x="94" y="96" width="44" height="18" rx="4" fill="#bff5ff"/>
    <rect x="206" y="124" width="18" height="26" rx="6" fill="#1c234a" stroke="#0a1026" stroke-width="4"/>
    <circle cx="96" cy="176" r="16" fill="#0a1026"/>
    <circle cx="160" cy="176" r="16" fill="#0a1026"/>
    <circle cx="96" cy="176" r="7" fill="#ffd04a"/>
    <circle cx="160" cy="176" r="7" fill="#ffd04a"/>
  </g>
  <text x="250" y="128" font-family="'Trebuchet MS',sans-serif" font-size="72" font-weight="900" fill="url(#shine)" stroke="#1c234a" stroke-width="6" paint-order="stroke">TRAIN</text>
  <text x="255" y="188" font-family="'Trebuchet MS',sans-serif" font-size="68" font-weight="900" fill="#ffffff" stroke="#1c234a" stroke-width="6" paint-order="stroke">MANIA</text>
</svg>
